<svg xmlns="http://www.w3.org/2000/svg" width="38.432" height="53" viewBox="0 0 38.432 53">
  <g id="bell-svgrepo-com" transform="translate(-70.366)">
    <g id="Group_21" data-name="Group 21" transform="translate(70.366)">
      <g id="Group_20" data-name="Group 20">
        <path id="Path_145" data-name="Path 145" d="M108.444,42.973l-2.586-4.853V26.137A16.3,16.3,0,0,0,94.1,10.5V4.517a4.516,4.516,0,1,0-9.033,0V10.5a16.305,16.305,0,0,0-11.76,15.638V38.12L70.72,42.973a2.987,2.987,0,0,0,2.636,4.392H83.621a5.97,5.97,0,0,0,11.921,0h10.265a2.987,2.987,0,0,0,2.636-4.392ZM87.455,4.517a2.127,2.127,0,1,1,4.253,0V10a16.347,16.347,0,0,0-4.253,0ZM75.7,26.137a13.886,13.886,0,1,1,27.773,0v11H75.7ZM89.582,50.61a3.585,3.585,0,0,1-3.565-3.245h7.129A3.586,3.586,0,0,1,89.582,50.61Zm16.737-5.925a.588.588,0,0,1-.512.29H73.357a.6.6,0,0,1-.527-.879l2.438-4.575H103.9l2.438,4.575A.589.589,0,0,1,106.319,44.685Z" transform="translate(-70.366)" fill="#555"/>
      </g>
    </g>
    <g id="Group_23" data-name="Group 23" transform="translate(78.881 15.436)">
      <g id="Group_22" data-name="Group 22">
        <path id="Path_146" data-name="Path 146" d="M163.323,149.113a10.713,10.713,0,0,0-10.7,10.7,1.195,1.195,0,1,0,2.39,0,8.321,8.321,0,0,1,8.311-8.311,1.195,1.195,0,1,0,0-2.39Z" transform="translate(-152.622 -149.113)" fill="#555"/>
      </g>
    </g>
  </g>
</svg>
