<svg xmlns="http://www.w3.org/2000/svg" width="17.148" height="23.648" viewBox="0 0 17.148 23.648">
  <g id="bell-svgrepo-com" transform="translate(-70.366)">
    <g id="Group_29" data-name="Group 29" transform="translate(70.366)">
      <g id="Group_28" data-name="Group 28" transform="translate(0)">
        <path id="Path_159" data-name="Path 159" d="M87.356,19.174,86.2,17.009V11.662a7.275,7.275,0,0,0-5.247-6.977V2.015a2.015,2.015,0,1,0-4.03,0V4.684a7.275,7.275,0,0,0-5.247,6.977v5.347l-1.154,2.165a1.333,1.333,0,0,0,1.176,1.96h4.58a2.664,2.664,0,0,0,5.319,0h4.58a1.333,1.333,0,0,0,1.176-1.96ZM77.991,2.015a.949.949,0,1,1,1.9,0V4.462a7.294,7.294,0,0,0-1.9,0Zm-5.247,9.647a6.2,6.2,0,1,1,12.392,0v4.906H72.744Zm6.2,10.92a1.6,1.6,0,0,1-1.59-1.448H80.53A1.6,1.6,0,0,1,78.94,22.582Zm7.468-2.644a.262.262,0,0,1-.229.129H71.7a.267.267,0,0,1-.235-.392l1.088-2.041H85.327l1.088,2.041A.263.263,0,0,1,86.408,19.938Z" transform="translate(-70.366)" fill="#2f7038"/>
      </g>
    </g>
    <g id="Group_31" data-name="Group 31" transform="translate(74.165 6.887)">
      <g id="Group_30" data-name="Group 30">
        <path id="Path_160" data-name="Path 160" d="M157.4,149.113a4.78,4.78,0,0,0-4.775,4.775.533.533,0,1,0,1.066,0,3.713,3.713,0,0,1,3.708-3.708.533.533,0,1,0,0-1.066Z" transform="translate(-152.622 -149.113)" fill="#2f7038"/>
      </g>
    </g>
  </g>
</svg>
