<svg xmlns="http://www.w3.org/2000/svg" width="40" height="39.94" viewBox="0 0 40 39.94">
  <g id="calculator-svgrepo-com_1_" data-name="calculator-svgrepo-com(1)" transform="translate(0 -0.384)">
    <g id="Group_1" data-name="Group 1" transform="translate(0 0.384)">
      <path id="Path_5" data-name="Path 5" d="M14.5,18.549H3.668A3.672,3.672,0,0,1,0,14.882V4.051A3.672,3.672,0,0,1,3.668.384H14.5a3.672,3.672,0,0,1,3.667,3.667V14.882A3.672,3.672,0,0,1,14.5,18.549ZM3.668,2.7A1.35,1.35,0,0,0,2.319,4.052V14.882a1.35,1.35,0,0,0,1.349,1.349H14.5a1.35,1.35,0,0,0,1.349-1.349V4.051A1.35,1.35,0,0,0,14.5,2.7Z" transform="translate(0 -0.384)" fill="#507c5c"/>
      <path id="Path_6" data-name="Path 6" d="M102.581,67.136a1.159,1.159,0,0,1-1.159-1.159V59.127a1.159,1.159,0,0,1,2.318,0v6.85A1.159,1.159,0,0,1,102.581,67.136Z" transform="translate(-93.498 -53.469)" fill="#507c5c"/>
      <path id="Path_7" data-name="Path 7" d="M65.594,104.123H58.744a1.159,1.159,0,1,1,0-2.318h6.849a1.159,1.159,0,0,1,0,2.318Z" transform="translate(-53.086 -93.881)" fill="#507c5c"/>
    </g>
    <path id="Path_8" data-name="Path 8" d="M307.658,31.068H296.827a2.508,2.508,0,0,1-2.508-2.508V17.729a2.508,2.508,0,0,1,2.508-2.508h10.831a2.508,2.508,0,0,1,2.508,2.508V28.56A2.508,2.508,0,0,1,307.658,31.068Z" transform="translate(-271.325 -13.678)" fill="#cff09e"/>
    <g id="Group_2" data-name="Group 2" transform="translate(21.834 0.384)">
      <path id="Path_9" data-name="Path 9" d="M293.979,18.549H283.148a3.672,3.672,0,0,1-3.668-3.667V4.051A3.672,3.672,0,0,1,283.148.384h10.831a3.672,3.672,0,0,1,3.668,3.668V14.882A3.672,3.672,0,0,1,293.979,18.549ZM283.148,2.7A1.35,1.35,0,0,0,281.8,4.051V14.882a1.35,1.35,0,0,0,1.349,1.349h10.831a1.35,1.35,0,0,0,1.349-1.349V4.051A1.35,1.35,0,0,0,293.979,2.7Z" transform="translate(-279.481 -0.384)" fill="#507c5c"/>
      <path id="Path_10" data-name="Path 10" d="M345.076,104.123h-6.849a1.159,1.159,0,0,1,0-2.318h6.849a1.159,1.159,0,0,1,0,2.318Z" transform="translate(-332.568 -93.881)" fill="#507c5c"/>
    </g>
    <path id="Path_11" data-name="Path 11" d="M28.177,309.781H17.346a2.508,2.508,0,0,1-2.508-2.508V296.442a2.508,2.508,0,0,1,2.508-2.508H28.177a2.508,2.508,0,0,1,2.508,2.508v10.831A2.508,2.508,0,0,1,28.177,309.781Z" transform="translate(-13.679 -270.616)" fill="#cff09e"/>
    <g id="Group_3" data-name="Group 3" transform="translate(0 22.158)">
      <path id="Path_12" data-name="Path 12" d="M14.5,297.262H3.668A3.672,3.672,0,0,1,0,293.594V282.763A3.672,3.672,0,0,1,3.668,279.1H14.5a3.672,3.672,0,0,1,3.667,3.667v10.831A3.672,3.672,0,0,1,14.5,297.262ZM3.668,281.415a1.35,1.35,0,0,0-1.349,1.349v10.831a1.35,1.35,0,0,0,1.349,1.349H14.5a1.35,1.35,0,0,0,1.349-1.349V282.764a1.35,1.35,0,0,0-1.349-1.349Z" transform="translate(0 -279.096)" fill="#507c5c"/>
      <path id="Path_13" data-name="Path 13" d="M71.584,356.685a1.159,1.159,0,0,1-.82-1.979l4.843-4.843a1.159,1.159,0,1,1,1.639,1.64L72.4,356.345A1.156,1.156,0,0,1,71.584,356.685Z" transform="translate(-64.923 -344.021)" fill="#507c5c"/>
      <path id="Path_14" data-name="Path 14" d="M76.426,356.684a1.156,1.156,0,0,1-.82-.34L70.763,351.5a1.159,1.159,0,0,1,1.639-1.64l4.843,4.843a1.159,1.159,0,0,1-.82,1.979Z" transform="translate(-64.922 -344.02)" fill="#507c5c"/>
      <path id="Path_15" data-name="Path 15" d="M293.979,297.262H283.148a3.672,3.672,0,0,1-3.668-3.668V282.763a3.672,3.672,0,0,1,3.668-3.667h10.831a3.672,3.672,0,0,1,3.668,3.667v4.072a1.159,1.159,0,0,1-2.318,0v-4.072a1.35,1.35,0,0,0-1.349-1.349H283.148a1.35,1.35,0,0,0-1.349,1.349v10.831a1.35,1.35,0,0,0,1.349,1.349h10.831a1.35,1.35,0,0,0,1.349-1.349v-1.311a1.159,1.159,0,1,1,2.319,0v1.311A3.672,3.672,0,0,1,293.979,297.262Z" transform="translate(-257.647 -279.096)" fill="#507c5c"/>
      <path id="Path_16" data-name="Path 16" d="M345.076,356h-6.849a1.159,1.159,0,0,1,0-2.318h6.849a1.159,1.159,0,0,1,0,2.318Z" transform="translate(-310.734 -347.856)" fill="#507c5c"/>
      <path id="Path_17" data-name="Path 17" d="M345.076,409.67h-6.849a1.159,1.159,0,0,1,0-2.318h6.849a1.159,1.159,0,0,1,0,2.318Z" transform="translate(-310.734 -397.332)" fill="#507c5c"/>
    </g>
  </g>
</svg>
