<svg id="check-svgrepo-com" xmlns="http://www.w3.org/2000/svg" width="20.6" height="20.6" viewBox="0 0 20.6 20.6">
  <path id="Path_170" data-name="Path 170" d="M10.3,0A10.3,10.3,0,1,0,20.6,10.3,10.312,10.312,0,0,0,10.3,0Zm0,18.727A8.427,8.427,0,1,1,18.727,10.3,8.437,8.437,0,0,1,10.3,18.727Z" fill="#2f7038"/>
  <path id="Path_171" data-name="Path 171" d="M86.845,102.545l-5.3,5.3-2.428-2.428a.936.936,0,1,0-1.324,1.324l3.09,3.09a.936.936,0,0,0,.662.274h0a.937.937,0,0,0,.662-.274l5.959-5.959a.936.936,0,0,0-1.324-1.324Z" transform="translate(-72.682 -95.887)" fill="#2f7038"/>
</svg>
