<svg xmlns="http://www.w3.org/2000/svg" width="35.844" height="41.148" viewBox="0 0 35.844 41.148">
  <g id="contract-svgrepo-com_2_" data-name="contract-svgrepo-com(2)" transform="translate(-17.024)">
    <path id="Path_25" data-name="Path 25" d="M51.436,37.228l-3.76,2.732-1.124-4.509,6.435-17.681a2.587,2.587,0,0,1,1.11-1.342V10.272A2.772,2.772,0,0,0,51.325,7.5H27.3a2.772,2.772,0,0,0-2.772,2.772V43.539A2.772,2.772,0,0,0,27.3,46.311H51.325A2.772,2.772,0,0,0,54.1,43.539V29.916Z" transform="translate(-6.332 -6.332)" fill="#fff"/>
    <g id="Group_6" data-name="Group 6" transform="translate(17.024)">
      <path id="Path_26" data-name="Path 26" d="M175.7,62.6a2.6,2.6,0,0,0-3.331,1.553l-6.435,17.681,1.124,4.509,3.76-2.731,6.435-17.681A2.6,2.6,0,0,0,175.7,62.6Z" transform="translate(-142.733 -52.715)" fill="#cff09e"/>
      <g id="Group_5" data-name="Group 5">
        <path id="Path_27" data-name="Path 27" d="M45.808,43.112H66.778a1.168,1.168,0,0,0,0-2.337H45.808a1.168,1.168,0,1,0,0,2.337Z" transform="translate(-40.338 -34.423)" fill="#cff09e"/>
        <path id="Path_28" data-name="Path 28" d="M55.6,166.474H45.808a1.168,1.168,0,1,0,0,2.337H55.6a1.168,1.168,0,1,0,0-2.337Z" transform="translate(-40.338 -140.541)" fill="#cff09e"/>
        <path id="Path_29" data-name="Path 29" d="M55.6,208.373H45.808a1.168,1.168,0,1,0,0,2.337H55.6a1.168,1.168,0,1,0,0-2.337Z" transform="translate(-40.338 -175.913)" fill="#cff09e"/>
        <path id="Path_30" data-name="Path 30" d="M48.934,8.564V3.941A3.945,3.945,0,0,0,44.993,0H20.965a3.945,3.945,0,0,0-3.941,3.941V37.207a3.945,3.945,0,0,0,3.941,3.941H44.993a3.945,3.945,0,0,0,3.941-3.941V23.79l3.7-10.175A3.767,3.767,0,0,0,48.934,8.564ZM46.6,37.207a1.606,1.606,0,0,1-1.6,1.6H20.965a1.606,1.606,0,0,1-1.6-1.6V3.941a1.606,1.606,0,0,1,1.6-1.6H44.993a1.606,1.606,0,0,1,1.6,1.6V9.51c-.928.82-1.037,1.521-2.014,4.205a1.168,1.168,0,0,0-1.12-.836H22.494a1.168,1.168,0,0,0,0,2.337H43.463a1.163,1.163,0,0,0,.644-.194l-1.6,4.384H22.494a1.168,1.168,0,0,0,0,2.337H41.661l-2.539,6.977a1.168,1.168,0,0,0-.036.682l1.124,4.509a1.169,1.169,0,0,0,1.82.663l3.76-2.732c.37-.269.4-.519.806-1.631v7Zm3.844-24.392L46.667,23.185h0l-2.539,6.976-2.07,1.5-.619-2.482,6.313-17.345a1.43,1.43,0,1,1,2.688.978Z" transform="translate(-17.024)" fill="#507c5c"/>
      </g>
    </g>
  </g>
</svg>
