<svg xmlns="http://www.w3.org/2000/svg" width="18.5" height="15.434" viewBox="0 0 18.5 15.434">
  <g id="dashboard-svgrepo-com" transform="translate(0 -42.272)">
    <g id="Group_39" data-name="Group 39" transform="translate(0 42.272)">
      <path id="Path_172" data-name="Path 172" d="M14.666,52.29a.774.774,0,0,1,0-1.547h3.829a9.238,9.238,0,0,0-2.162-5.215L14.721,47.14a.774.774,0,0,1-1.094-1.094l1.612-1.612a9.236,9.236,0,0,0-5.215-2.162V46.1a.774.774,0,0,1-1.547,0V42.272a9.236,9.236,0,0,0-5.215,2.162l1.612,1.612A.774.774,0,1,1,3.779,47.14L2.167,45.528A9.234,9.234,0,0,0,.005,50.743H3.834a.774.774,0,0,1,0,1.547H0a9.293,9.293,0,0,0,2.089,5.135.774.774,0,0,0,.6.281H15.815a.774.774,0,0,0,.6-.281A9.293,9.293,0,0,0,18.5,52.29Zm-8.51,2.321a.774.774,0,1,1,.774-.774A.774.774,0,0,1,6.155,54.611Zm1.039-3.735,4.377-2.189L9.383,53.064Zm5.15,3.735a.774.774,0,1,1,.774-.774A.774.774,0,0,1,12.345,54.611Z" transform="translate(0 -42.272)" fill="#2f7038"/>
    </g>
  </g>
</svg>
