<svg xmlns="http://www.w3.org/2000/svg" width="46.292" height="54.5" viewBox="0 0 46.292 54.5">
  <g id="document-svgrepo-com" transform="translate(-3.625 0)">
    <path id="Path_168" data-name="Path 168" d="M45.94,15.961,32.734.414A1.117,1.117,0,0,0,31.885,0H8.155C3.658,0,0,4.307,0,9.6V44.9c0,5.294,3.658,9.6,8.155,9.6H38.137c4.5,0,8.155-4.307,8.155-9.6V16.961A1.551,1.551,0,0,0,45.94,15.961ZM32.885,4.591l9.506,11.192H32.885Zm5.251,47.081H8.155C4.982,51.672,2.4,48.634,2.4,44.9V9.6c0-3.735,2.581-6.773,5.753-6.773H30.484V17.2a1.321,1.321,0,0,0,1.2,1.414h12.2V44.9C43.89,48.634,41.309,51.672,38.137,51.672Z" transform="translate(3.625 0)" fill="#555"/>
    <path id="Path_169" data-name="Path 169" d="M63.294,45.445a7.319,7.319,0,1,0-10.35,10.35l14.5,14.5a4.807,4.807,0,1,0,6.8-6.8L59.886,49.14a1.414,1.414,0,0,0-2,2L72.242,65.495a1.98,1.98,0,1,1-2.8,2.8l-14.5-14.5a4.491,4.491,0,0,1,6.352-6.352L76.486,62.636A6.99,6.99,0,1,1,66.6,72.521L54.921,60.841a1.414,1.414,0,1,0-2,2L64.6,74.52A9.817,9.817,0,1,0,78.486,60.636Z" transform="translate(-38.831 -33.099)" fill="#555"/>
  </g>
</svg>
