<svg xmlns="http://www.w3.org/2000/svg" width="18.822" height="19.586" viewBox="0 0 18.822 19.586">
  <g id="document-svgrepo-com" transform="translate(22.961 -2.875)">
    <path id="Path_167" data-name="Path 167" d="M58.495,44.532a4.74,4.74,0,0,0-6.374,0,4.007,4.007,0,0,0,0,5.946l8.93,8.329a3.118,3.118,0,0,0,4.187,0,2.635,2.635,0,0,0,0-3.906L56.4,46.655a.916.916,0,0,0-1.231,0,.774.774,0,0,0,0,1.148l8.841,8.246a1.085,1.085,0,0,1,0,1.608,1.284,1.284,0,0,1-1.725,0l-8.93-8.329a2.459,2.459,0,0,1,0-3.649,2.912,2.912,0,0,1,3.912,0l9.356,8.727a3.831,3.831,0,0,1,0,5.679,4.527,4.527,0,0,1-6.088,0l-7.194-6.71a.916.916,0,0,0-1.231,0,.774.774,0,0,0,0,1.148l7.194,6.71a6.359,6.359,0,0,0,8.551,0,5.375,5.375,0,0,0,0-7.975Z" transform="translate(-73.761 -40.426)" fill="#2f7038"/>
  </g>
</svg>
