<svg id="Group_3" data-name="Group 3" xmlns="http://www.w3.org/2000/svg" width="21.667" height="21.917" viewBox="0 0 21.667 21.917">
  <path id="Path_116" data-name="Path 116" d="M34.724,94.833l-2.038.588H40.28a.621.621,0,0,1,0,1.243H28.49a.58.58,0,0,0-.2,0,.621.621,0,0,1-.608-.751l1.446-6.762a.621.621,0,0,1,.168-.309l7.564-7.564H26.412V97.743H42.878V86.789l-7.886,7.886A.622.622,0,0,1,34.724,94.833Z" transform="translate(-25.169 -77.069)" fill="none"/>
  <path id="Path_117" data-name="Path 117" d="M83.038,262.862l-3.388-3.388-1,4.654Z" transform="translate(-74.706 -246.039)" fill="none"/>
  <path id="Path_118" data-name="Path 118" d="M306.5,24a.906.906,0,0,0-.653.261l-.023.02-.449.449,4.006,4.006.439-.439.007-.006,0,0,.02-.022c.838-.9-.605-2.474-1.067-2.936A3.809,3.809,0,0,0,306.5,24Z" transform="translate(-289.689 -22.757)" fill="none"/>
  <path id="Path_119" data-name="Path 119" d="M107.91,64.411l4.006,4.006,9.346-9.346-4.006-4.006Zm10.432-6.426a.621.621,0,0,1,0,.879l-6.564,6.564a.621.621,0,0,1-.879-.879l6.564-6.564A.621.621,0,0,1,118.342,57.985Z" transform="translate(-102.447 -52.214)" fill="#effaf2"/>
  <path id="Path_120" data-name="Path 120" d="M162.3,115.564a.621.621,0,0,0,.879,0L169.746,109a.621.621,0,1,0-.879-.879l-6.564,6.564A.621.621,0,0,0,162.3,115.564Z" transform="translate(-153.852 -102.351)" fill="#2f7038"/>
  <path id="Path_121" data-name="Path 121" d="M23.923,3.96a6.149,6.149,0,0,0-1.537-2.268A4.985,4.985,0,0,0,19.223,0a2.16,2.16,0,0,0-1.457.555.618.618,0,0,0-.061.053L15.348,2.966H3.033a.621.621,0,0,0-.621.621V21.3a.621.621,0,0,0,.621.621H20.742a.621.621,0,0,0,.621-.621V8.6a.622.622,0,0,0-.011-.113l2.064-2.064.012-.012h0l.04-.04a.613.613,0,0,0,.053-.06A2.272,2.272,0,0,0,23.923,3.96ZM10.744,16.824,6.36,18.089l1-4.654ZM11.88,16.2,7.875,12.2,17.22,2.851l4.006,4.006Zm8.24,4.471H3.655V4.208H14.106L6.542,11.772a.621.621,0,0,0-.168.309L4.927,18.844a.621.621,0,0,0,.608.751H17.523a.621.621,0,0,0,0-1.243H9.929l2.038-.588a.622.622,0,0,0,.267-.158L20.12,9.72ZM22.574,5.507l-.02.022,0,0-.006.006-.439.439L18.1,1.972l.449-.449.023-.02a.906.906,0,0,1,.653-.261A3.809,3.809,0,0,1,21.507,2.57C21.969,3.033,23.412,4.61,22.574,5.507Z" transform="translate(-2.412)" fill="#2f7038"/>
</svg>
