<svg xmlns="http://www.w3.org/2000/svg" width="54.003" height="56" viewBox="0 0 54.003 56">
  <g id="exit-svgrepo-com" transform="translate(-0.501 0.5)">
    <path id="Path_122" data-name="Path 122" d="M53.924,24.382a1,1,0,0,0,0-.764,1.021,1.021,0,0,0-.217-.327l-12-12a1,1,0,0,0-1.414,1.414L50.587,23H29a1,1,0,0,0,0,2H50.587L40.294,35.293a1,1,0,1,0,1.414,1.414l12-12A1.006,1.006,0,0,0,53.924,24.382Z" fill="#555" stroke="#555" stroke-width="1"/>
    <path id="Path_123" data-name="Path 123" d="M36,29a1,1,0,0,0-1,1V46H25V8a1,1,0,0,0-.7-.953L8.442,2H35V18a1,1,0,0,0,2,0V1a1,1,0,0,0-1-1H2A.915.915,0,0,0,1.91.018.922.922,0,0,0,1.752.05a.972.972,0,0,0-.259.108c-.026.016-.057.016-.082.034s-.055.052-.083.077S1.293.3,1.277.316a1.041,1.041,0,0,0-.184.273c-.009.02-.014.04-.022.06A1,1,0,0,0,1,1V47a.986.986,0,0,0,.072.355,1,1,0,0,0,.053.1.962.962,0,0,0,.132.2c.029.032.058.061.09.09a.989.989,0,0,0,.193.13.887.887,0,0,0,.111.056c.017.006.03.018.047.024l22,7A1.034,1.034,0,0,0,24,55a1,1,0,0,0,1-1V48H36a1,1,0,0,0,1-1V30A1,1,0,0,0,36,29ZM23,52.633,3,46.269V2.367L23,8.731Z" fill="#555" stroke="#555" stroke-width="1"/>
  </g>
</svg>
