<svg xmlns="http://www.w3.org/2000/svg" width="19.087" height="19.787" viewBox="0 0 19.087 19.787">
  <g id="exit-svgrepo-com" transform="translate(-0.751 0.25)">
    <path id="Path_161" data-name="Path 161" d="M37.091,15.693a.351.351,0,0,0,0-.268.358.358,0,0,0-.076-.115L32.808,11.1a.351.351,0,0,0-.5.5l3.609,3.609h-7.57a.351.351,0,0,0,0,.7h7.57l-3.609,3.609a.351.351,0,1,0,.5.5l4.208-4.208A.353.353,0,0,0,37.091,15.693Z" transform="translate(-17.532 -7.142)" fill="#2f7038" stroke="#2f7038" stroke-width="0.5"/>
    <path id="Path_162" data-name="Path 162" d="M13.274,10.169a.35.35,0,0,0-.351.351v5.611H9.417V2.805a.351.351,0,0,0-.244-.334L3.61.7h9.313V6.312a.351.351,0,0,0,.7,0V.351A.35.35,0,0,0,13.274,0H1.352A.321.321,0,0,0,1.32.006a.323.323,0,0,0-.055.011.341.341,0,0,0-.091.038c-.009.006-.02.006-.029.012s-.019.018-.029.027L1.1.111a.365.365,0,0,0-.065.1c0,.007,0,.014-.008.021A.35.35,0,0,0,1,.351V16.482a.346.346,0,0,0,.025.124.351.351,0,0,0,.019.036.337.337,0,0,0,.046.069c.01.011.02.021.032.032a.347.347,0,0,0,.068.046.311.311,0,0,0,.039.02l.016.008,7.715,2.455a.363.363,0,0,0,.106.016.35.35,0,0,0,.351-.351v-2.1h3.857a.35.35,0,0,0,.351-.351V10.52A.351.351,0,0,0,13.274,10.169ZM8.716,18.457,1.7,16.225V.83L8.716,3.062Z" fill="#2f7038" stroke="#2f7038" stroke-width="0.5"/>
  </g>
</svg>
