<svg xmlns="http://www.w3.org/2000/svg" width="58" height="54.274" viewBox="0 0 58 54.274">
  <g id="Path_130" data-name="Path 130" transform="translate(0 -9.256)" fill="#555">
    <path d="M 28.9999942779541 62.31065368652344 L 27.32855033874512 61.1832160949707 C 26.79247093200684 60.82170486450195 14.14801979064941 52.2691650390625 9.469590187072754 46.87081527709961 C 3.691270112991333 40.20328521728516 1 33.67839431762695 1 26.33661460876465 C 1 17.46973419189453 8.21382999420166 10.25600528717041 17.08082008361816 10.25600528717041 C 19.18512916564941 10.25600528717041 21.23871994018555 10.66172504425049 23.18456077575684 11.46190547943115 C 25.09775924682617 12.24866485595703 26.81957054138184 13.37960529327393 28.30213928222656 14.82333469390869 L 28.99975967407227 15.50266551971436 L 29.69741058349609 14.82338523864746 C 31.18014907836914 13.37967491149902 32.90201950073242 12.24874496459961 34.81520843505859 11.46197509765625 C 36.76113128662109 10.6617546081543 38.81473922729492 10.25600528717041 40.91897964477539 10.25600528717041 C 49.7859001159668 10.25600528717041 56.99980926513672 17.46974563598633 57 26.33663558959961 C 57 33.67839431762695 54.30873107910156 40.20328521728516 48.53041076660156 46.87081527709961 C 43.86198043823242 52.25760650634766 31.20772933959961 60.82136535644531 30.67132949829102 61.18328475952148 L 28.9999942779541 62.31065368652344 Z M 17.08082008361816 16.30596542358398 C 11.54979038238525 16.30596542358398 7.049970149993896 20.80569458007812 7.049970149993896 26.33661460876465 C 7.049970149993896 32.138916015625 9.271599769592285 37.40475463867188 14.04156017303467 42.90853500366211 C 17.17864036560059 46.52837371826172 25.14525985717773 52.28257369995117 28.42481994628906 54.58852386474609 L 29.00000953674316 54.99295425415039 L 29.57519912719727 54.58851623535156 C 32.85517883300781 52.28215408325195 40.8226203918457 46.52714538574219 43.95846939086914 42.90849685668945 C 48.72819900512695 37.40473556518555 50.94982147216797 32.138916015625 50.95003128051758 26.33665466308594 C 50.95003128051758 20.80569458007812 46.45021057128906 16.30596542358398 40.91918182373047 16.30596542358398 C 37.06045150756836 16.30596542358398 34.10322952270508 17.71854591369629 31.03095054626465 21.02927589416504 C 30.4292049407959 21.67766380310059 29.61530494689941 22.71846199035645 29.00803375244141 23.51922416687012 L 29.00194931030273 23.51089477539062 L 28.99392509460449 23.52183151245117 C 28.38663291931152 22.72098922729492 27.57182312011719 21.67891502380371 26.96908950805664 21.02932548522949 C 23.89699935913086 17.71855545043945 20.93976020812988 16.30596542358398 17.08082008361816 16.30596542358398 Z" stroke="none"/>
    <path d="M 17.08081817626953 11.25599670410156 C 8.765228271484375 11.25599670410156 2 18.02113342285156 2 26.33661651611328 C 2 29.90437316894531 2.646759033203125 33.21139526367188 3.977218627929688 36.44663619995117 C 5.325210571289062 39.7244758605957 7.368968963623047 42.92002487182617 10.22528839111328 46.21588516235352 C 13.89944839477539 50.45543670654297 23.38515853881836 57.31778717041016 27.88775062561035 60.35418701171875 L 28.9999942779541 61.10442352294922 L 30.11199951171875 60.35434722900391 C 30.64393997192383 59.99542617797852 43.19247055053711 51.50323486328125 47.77471160888672 46.21589660644531 C 50.63103103637695 42.92002487182617 52.67478179931641 39.7244758605957 54.02276992797852 36.44663619995117 C 55.35324096679688 33.21139526367188 56 29.90437316894531 56 26.33665466308594 C 55.99980926513672 18.02115631103516 49.23450088500977 11.25599670410156 40.91897964477539 11.25599670410156 C 38.94585037231445 11.25599670410156 37.02021026611328 11.6364631652832 35.19554138183594 12.38682556152344 C 33.4009895324707 13.12480545043945 31.78586006164551 14.18563461303711 30.39502906799316 15.53985595703125 L 28.99971008300781 16.89843368530273 L 27.6044807434082 15.53976440429688 C 26.21381950378418 14.185546875 24.59878158569336 13.12471389770508 22.80424118041992 12.38675689697266 C 20.97964859008789 11.63643646240234 19.05401992797852 11.25599670410156 17.08081817626953 11.25599670410156 M 28.97318267822266 21.85985946655273 L 29.0038890838623 21.81801605224609 L 29.03077125549316 21.85482025146484 C 29.466552734375 21.30461502075195 29.91770172119141 20.75876235961914 30.29792976379395 20.34906387329102 C 33.53446960449219 16.8613166809082 36.8101806640625 15.30596542358398 40.91918182373047 15.30596542358398 C 47.00160980224609 15.30596542358398 51.95003128051758 20.25429534912109 51.95003128051758 26.33668518066406 C 51.94981002807617 32.39342498779297 49.65055847167969 37.86734390258789 44.71418762207031 43.56339263916016 C 41.50591278076172 47.26561737060547 33.46051788330078 53.07896423339844 30.150390625 55.40652465820312 L 29.00003051757812 56.21541595458984 L 27.84964942932129 55.40655517578125 C 24.53993988037109 53.07941436767578 16.49539184570312 47.26689529418945 13.28585815429688 43.5634651184082 C 8.349220275878906 37.86735534667969 6.049961090087891 32.39339447021484 6.049961090087891 26.33661651611328 C 6.049961090087891 20.25429534912109 10.99837875366211 15.30596542358398 17.08081817626953 15.30596542358398 C 21.19004058837891 15.30596542358398 24.46575927734375 16.86132431030273 27.70214080810547 20.34914398193359 C 28.08367347717285 20.76033782958984 28.53632164001465 21.30815505981445 28.97318267822266 21.85985946655273 M 17.08081817626953 9.255996704101562 C 21.61354827880859 9.255996704101562 25.86594009399414 11.0551643371582 28.99979972839355 14.10690689086914 C 32.13385009765625 11.05536651611328 36.38623809814453 9.255996704101562 40.91897964477539 9.255996704101562 C 50.33744049072266 9.255996704101562 57.99979019165039 16.91835403442383 58 26.33661651611328 C 58 33.93296432495117 55.23120880126953 40.66575622558594 49.28610992431641 47.52572631835938 C 44.52555847167969 53.01882553100586 31.77140045166016 61.64737701416016 31.23064041137695 62.01224517822266 L 29.02012062072754 63.5032958984375 L 29.02012062072754 63.53026580810547 L 29 63.51678466796875 L 28.9798698425293 63.53026580810547 L 28.9798698425293 63.5032958984375 L 26.76935005187988 62.01224517822266 C 26.22859001159668 61.64757537841797 13.47443008422852 53.01882553100586 8.713890075683594 47.52572631835938 C 2.768779754638672 40.66575622558594 0 33.93296432495117 0 26.33661651611328 C 0 16.91835403442383 7.662361145019531 9.255996704101562 17.08081817626953 9.255996704101562 Z M 28.9798698425293 25.23135375976562 L 28.9798698425293 25.17641448974609 C 28.71542930603027 24.8145637512207 27.18351936340332 22.73063659667969 26.23604011535645 21.70949554443359 C 23.38151931762695 18.63320541381836 20.65016937255859 17.30596542358398 17.08081817626953 17.30596542358398 C 12.10131072998047 17.30596542358398 8.049961090087891 21.35710525512695 8.049961090087891 26.33661651611328 C 8.049961090087891 31.88424682617188 10.19387054443359 36.94203567504883 14.7972412109375 42.25360488891602 C 17.59199142456055 45.47842407226562 24.68722915649414 50.73807525634766 29 53.77049255371094 C 33.31256103515625 50.73806762695312 40.40800094604492 45.47862243652344 43.20275115966797 42.25360488891602 C 47.8059196472168 36.94203567504883 49.9498291015625 31.88424682617188 49.95003128051758 26.33661651611328 C 49.95003128051758 21.35710525512695 45.898681640625 17.30596542358398 40.91918182373047 17.30596542358398 C 37.34983062744141 17.30596542358398 34.61866760253906 18.63320541381836 31.76395988464355 21.70949554443359 C 30.81627082824707 22.73063659667969 29.28455924987793 24.8145637512207 29.02012062072754 25.17641448974609 L 29.02012062072754 25.23135375976562 C 29.02012062072754 25.23135375976562 29.01308059692383 25.22169494628906 29 25.20378494262695 C 28.98670959472656 25.22189331054688 28.9798698425293 25.23135375976562 28.9798698425293 25.23135375976562 Z" stroke="none" fill="#effaf2"/>
  </g>
</svg>
