<svg xmlns="http://www.w3.org/2000/svg" width="19.917" height="18.637" viewBox="0 0 19.917 18.637">
  <g id="heart-svgrepo-com" transform="translate(0 -9.256)">
    <g id="Path_130" data-name="Path 130" fill="#2f7038">
      <path d="M 9.95828914642334 27.58704566955566 L 9.332109451293945 27.1646728515625 C 9.147599220275879 27.04024124145508 4.795208930969238 24.09607124328613 3.181179046630859 22.23368263244629 C 1.18139910697937 19.92617225646973 0.249999150633812 17.66616249084473 0.249999150633812 15.12130165100098 C 0.249999150633812 12.02501201629639 2.769039154052734 9.506002426147461 5.865369319915771 9.506002426147461 C 7.336089134216309 9.506002426147461 8.727679252624512 10.07240200042725 9.783799171447754 11.10086250305176 L 9.958209037780762 11.27069187164307 L 10.13261890411377 11.10087203979492 C 11.18889904022217 10.07240200042725 12.58051872253418 9.506002426147461 14.05113887786865 9.506002426147461 C 17.14743995666504 9.506002426147461 19.6665096282959 12.02502250671387 19.66657829284668 15.12131214141846 C 19.66657829284668 17.66616249084473 18.73517990112305 19.92617225646973 16.73539924621582 22.23368263244629 C 15.12437915802002 24.09260177612305 10.76905918121338 27.04013252258301 10.58443927764893 27.16469192504883 L 9.95828914642334 27.58704566955566 Z M 5.865369319915771 11.77027225494385 C 4.017569065093994 11.77027225494385 2.514269113540649 13.2735424041748 2.514269113540649 15.12130165100098 C 2.514269113540649 17.0899829864502 3.269909143447876 18.8787727355957 4.892299175262451 20.75075149536133 C 5.992809295654297 22.02063179016113 8.938029289245605 24.13005256652832 9.814498901367188 24.74631118774414 L 9.95828914642334 24.847412109375 L 10.10208892822266 24.74630165100098 C 10.97865867614746 24.12994194030762 13.92419910430908 22.02021217346191 15.02428913116455 20.75074195861816 C 16.64659881591797 18.8787727355957 17.4022388458252 17.0899829864502 17.40230941772461 15.12131214141846 C 17.40230941772461 13.2735424041748 15.89900875091553 11.77027225494385 14.05120944976807 11.77027225494385 C 12.75471878051758 11.77027225494385 11.75970935821533 12.2464017868042 10.72414875030518 13.36234188079834 C 10.4937801361084 13.61057090759277 10.17066860198975 14.02974319458008 9.959839820861816 14.31045055389404 L 9.958708763122559 14.3089017868042 L 9.957158088684082 14.31101703643799 C 9.746401786804199 14.03039360046387 9.423110008239746 13.61095428466797 9.192439079284668 13.36235237121582 C 8.156929016113281 12.2464017868042 7.161919116973877 11.77027225494385 5.865369319915771 11.77027225494385 Z" stroke="none"/>
      <path d="M 5.865368843078613 9.756000518798828 C 2.906888961791992 9.756000518798828 0.5 12.16286087036133 0.5 15.12129974365234 C 0.5 17.60252952575684 1.411989212036133 19.81052017211914 3.370100021362305 22.06995010375977 C 4.963169097900391 23.90816879272461 9.288509368896484 26.833740234375 9.471909523010254 26.9574089050293 L 9.95828914642334 27.28548431396484 L 10.44460868835449 26.95745086669922 C 10.62810897827148 26.83364105224609 14.95689964294434 23.90414047241211 16.54646873474121 22.06995010375977 C 18.50457954406738 19.81052017211914 19.41657829284668 17.60254096984863 19.41657829284668 15.12130928039551 C 19.41651916503906 12.16287040710449 17.00959014892578 9.756000518798828 14.05113983154297 9.756000518798828 C 12.64603900909424 9.756000518798828 11.31634902954102 10.2972297668457 10.30702877044678 11.27999114990234 L 9.958199501037598 11.61963081359863 L 9.609389305114746 11.27996063232422 C 8.60020923614502 10.29722023010254 7.270559310913086 9.756000518798828 5.865368843078613 9.756000518798828 M 9.95338249206543 13.8933277130127 L 9.959129333496094 13.88549041748047 L 9.964045524597168 13.89222526550293 C 10.15269756317139 13.64783096313477 10.37060737609863 13.37577629089355 10.54088878631592 13.19228935241699 C 11.61394882202148 12.03594017028809 12.69656944274902 11.5202693939209 14.05120849609375 11.5202693939209 C 16.0368595123291 11.5202693939209 17.65230941772461 13.13569068908691 17.65230941772461 15.1213207244873 C 17.6522388458252 17.15361022949219 16.87718963623047 18.99442100524902 15.21321868896484 20.91447067260742 C 14.12504959106445 22.17018127441406 11.37690925598145 24.15552139282227 10.24588871002197 24.95080947875977 L 9.958298683166504 25.15303039550781 L 9.670699119567871 24.95080947875977 C 8.539809226989746 24.15566062927246 5.791958808898926 22.17060089111328 4.703378677368164 20.91448974609375 C 3.039308547973633 18.99443054199219 2.26426887512207 17.15360069274902 2.26426887512207 15.12129974365234 C 2.26426887512207 13.13569068908691 3.879718780517578 11.5202693939209 5.865368843078613 11.5202693939209 C 7.22006893157959 11.5202693939209 8.302689552307129 12.03594017028809 9.375699043273926 13.19231033325195 C 9.546324729919434 13.37619590759277 9.764601707458496 13.64874458312988 9.95338249206543 13.8933277130127 M 5.865368843078613 9.256000518798828 C 7.421858787536621 9.256000518798828 8.882089614868164 9.873809814453125 9.958219528198242 10.92175102233887 C 11.03441905975342 9.873880386352539 12.49464893341064 9.256000518798828 14.05113983154297 9.256000518798828 C 17.28533935546875 9.256000518798828 19.9165096282959 11.88717079162598 19.91657829284668 15.12129974365234 C 19.91657829284668 17.72979927062988 18.9658088684082 20.04177093505859 16.92431831359863 22.39741134643555 C 15.28959846496582 24.28369140625 10.9099588394165 27.24663925170898 10.72426891326904 27.37192916870117 L 9.96519947052002 27.88393974304199 L 9.96519947052002 27.8931999206543 L 9.95828914642334 27.88856887817383 L 9.95137882232666 27.8931999206543 L 9.95137882232666 27.88393974304199 L 9.192309379577637 27.37192916870117 C 9.006619453430176 27.2467098236084 4.626978874206543 24.28369140625 2.99224853515625 22.39741134643555 C 0.9507694244384766 20.04177093505859 0 17.72979927062988 0 15.12129974365234 C 0 11.88717079162598 2.631168365478516 9.256000518798828 5.865368843078613 9.256000518798828 Z M 9.95137882232666 14.74176979064941 L 9.95137882232666 14.722900390625 C 9.860569000244141 14.5986499786377 9.334528923034668 13.8830394744873 9.00917911529541 13.53240013122559 C 8.028959274291992 12.47603034973145 7.091049194335938 12.0202693939209 5.865368843078613 12.0202693939209 C 4.155459403991699 12.0202693939209 2.76426887512207 13.41139030456543 2.76426887512207 15.12129974365234 C 2.76426887512207 17.02630043029785 3.500469207763672 18.76309013366699 5.081218719482422 20.58702087402344 C 6.040899276733398 21.69438934326172 8.477329254150391 23.5004997253418 9.95828914642334 24.54180145263672 C 11.43917942047119 23.5004997253418 13.87567901611328 21.69445991516113 14.83535957336426 20.58702087402344 C 16.41603851318359 18.76309013366699 17.1522388458252 17.02630043029785 17.15230941772461 15.12129974365234 C 17.15230941772461 13.41139030456543 15.7611198425293 12.0202693939209 14.05120849609375 12.0202693939209 C 12.82552909851074 12.0202693939209 11.88767910003662 12.47603034973145 10.90739917755127 13.53240013122559 C 10.5819787979126 13.8830394744873 10.05600929260254 14.5986499786377 9.96519947052002 14.722900390625 L 9.96519947052002 14.74176979064941 C 9.96519947052002 14.74176979064941 9.96277904510498 14.73845100402832 9.95828914642334 14.7322998046875 C 9.953728675842285 14.7385196685791 9.95137882232666 14.74176979064941 9.95137882232666 14.74176979064941 Z" stroke="none" fill="#fff"/>
    </g>
  </g>
</svg>
