<?xml version="1.0" standalone="no"?>
<!DOCTYPE svg PUBLIC "-//W3C//DTD SVG 20010904//EN"
 "http://www.w3.org/TR/2001/REC-SVG-20010904/DTD/svg10.dtd">
<svg version="1.0" xmlns="http://www.w3.org/2000/svg"
 width="109.000000pt" height="132.000000pt" viewBox="0 0 109.000000 132.000000"
 preserveAspectRatio="xMidYMid meet">

<g transform="translate(0.000000,132.000000) scale(0.100000,-0.100000)"
fill="#000000" stroke="none" style="fill: #ffffff;">
<path d="M132 1214 l-22 -15 0 -529 c0 -467 2 -530 16 -544 13 -14 65 -16 418
-16 378 0 404 1 419 18 15 17 17 69 17 545 l0 526 -22 15 c-34 24 -792 24
-826 0z m736 -122 c7 -9 12 -44 12 -83 0 -103 13 -99 -335 -99 -350 0 -335 -5
-335 104 0 49 4 77 13 85 13 10 580 22 617 12 8 -2 21 -11 28 -19z m-502 -304
c4 -7 7 -29 5 -50 l-2 -38 44 0 c88 0 90 -62 3 -68 l-47 -3 3 -40 c2 -43 -10
-63 -38 -57 -15 2 -20 14 -22 50 l-3 47 -47 3 c-41 3 -47 6 -50 27 -5 29 12
41 61 41 l37 0 0 44 c0 42 7 53 37 55 6 1 15 -4 19 -11z m498 -94 c9 -3 16
-17 16 -30 0 -31 -20 -36 -149 -32 -84 2 -106 6 -114 20 -8 12 -7 21 2 32 11
13 35 16 121 16 60 0 115 -3 124 -6z m-170 -270 c20 -19 20 -38 1 -54 -23 -19
-65 -4 -65 23 0 43 35 60 64 31z m-383 -20 c26 -25 28 -25 53 -9 14 10 26 22
26 27 0 17 55 4 58 -14 2 -9 -10 -31 -27 -50 l-30 -33 31 -32 c54 -56 10 -98
-46 -44 l-32 31 -29 -30 c-34 -36 -68 -37 -73 -3 -2 14 7 33 27 52 l29 29 -29
28 c-28 27 -37 53 -22 67 13 14 38 6 64 -19z m523 10 c9 -8 16 -19 16 -22 0
-4 -40 -47 -89 -96 -89 -89 -112 -100 -128 -60 -4 11 21 42 83 105 49 49 92
89 96 89 3 0 14 -7 22 -16z m26 -139 c27 -32 -23 -82 -55 -55 -15 13 -20 51
-8 63 12 12 50 7 63 -8z"/>
</g>
</svg>
