<svg xmlns="http://www.w3.org/2000/svg" width="16.857" height="24.67" viewBox="0 0 16.857 24.67">
  <g id="list-svgrepo-com" transform="translate(-47.049)">
    <path id="Path_147" data-name="Path 147" d="M63.724,4.691,59.216.182A.623.623,0,0,0,58.776,0h-11.1a.623.623,0,0,0-.623.623V24.047a.623.623,0,0,0,.623.623H63.283a.623.623,0,0,0,.623-.623V5.132A.623.623,0,0,0,63.724,4.691ZM61.78,4.509H59.4V2.127ZM48.294,23.425V1.245h9.859V5.132a.623.623,0,0,0,.623.623H62.66v17.67H48.294Z" transform="translate(0)" fill="#2f7038"/>
    <path id="Path_148" data-name="Path 148" d="M132.516,94.039h-6.5a.623.623,0,0,0,0,1.245h6.5a.623.623,0,0,0,0-1.245Z" transform="translate(-71.834 -86.231)" fill="#2f7038"/>
    <path id="Path_149" data-name="Path 149" d="M80.31,79.667h-.678v-.679a.623.623,0,1,0-1.245,0v1.3a.623.623,0,0,0,.623.623h1.3a.623.623,0,1,0,0-1.245Z" transform="translate(-28.735 -71.859)" fill="#2f7038"/>
    <path id="Path_150" data-name="Path 150" d="M132.516,141.057h-6.5a.623.623,0,0,0,0,1.245h6.5a.623.623,0,0,0,0-1.245Z" transform="translate(-71.834 -129.345)" fill="#2f7038"/>
    <path id="Path_151" data-name="Path 151" d="M80.31,126.686h-.678v-.679a.623.623,0,1,0-1.245,0v1.3a.623.623,0,0,0,.623.623h1.3a.623.623,0,1,0,0-1.245Z" transform="translate(-28.735 -114.974)" fill="#2f7038"/>
    <path id="Path_152" data-name="Path 152" d="M132.516,188.075h-6.5a.623.623,0,0,0,0,1.245h6.5a.623.623,0,1,0,0-1.245Z" transform="translate(-71.834 -172.459)" fill="#2f7038"/>
    <path id="Path_153" data-name="Path 153" d="M80.31,173.7h-.678v-.679a.623.623,0,0,0-1.245,0v1.3a.623.623,0,0,0,.623.623h1.3a.623.623,0,1,0,0-1.245Z" transform="translate(-28.735 -158.088)" fill="#2f7038"/>
    <path id="Path_154" data-name="Path 154" d="M132.516,235.094h-6.5a.623.623,0,0,0,0,1.246h6.5a.623.623,0,0,0,0-1.246Z" transform="translate(-71.834 -215.573)" fill="#2f7038"/>
    <path id="Path_155" data-name="Path 155" d="M80.31,220.722h-.678v-.679a.623.623,0,0,0-1.245,0v1.3a.623.623,0,0,0,.623.623h1.3a.623.623,0,1,0,0-1.245Z" transform="translate(-28.735 -201.202)" fill="#2f7038"/>
  </g>
</svg>
