<svg xmlns="http://www.w3.org/2000/svg" width="59.476" height="59.476" viewBox="0 0 59.476 59.476">
  <g id="user-svgrepo-com" transform="translate(-0.024 -0.333)">
    <path id="Path_127" data-name="Path 127" d="M48.35,50.783l.254.305a28.212,28.212,0,0,1-37.672.026l.28-.331A21.559,21.559,0,0,1,18.383,47.2a9.8,9.8,0,0,0,5.632-3.687V38.756s-2.823-3.776-2.428-6.4c0,0-3.5-2.327-1.068-5.721,0,0-5.62-16.134,8.633-16.3a6.62,6.62,0,0,1,5.4,2.708c9.65-.966,4.488,13.591,4.488,13.591,2.428,3.4-1.068,5.721-1.068,5.721.394,2.619-2.428,6.4-2.428,6.4v4.755A9.8,9.8,0,0,0,41.179,47.2,21.559,21.559,0,0,1,48.35,50.783Z" fill="#ccc"/>
    <path id="Path_128" data-name="Path 128" d="M48.35,50.783A21.559,21.559,0,0,0,41.179,47.2a9.8,9.8,0,0,1-5.632-3.687V38.756s2.823-3.776,2.428-6.4c0,0,3.5-2.327,1.068-5.721,0,0,5.162-14.558-4.488-13.591a6.622,6.622,0,0,0-5.4-2.708c-14.253.165-8.633,16.3-8.633,16.3-2.428,3.4,1.068,5.721,1.068,5.721-.394,2.619,2.428,6.4,2.428,6.4v4.755A9.8,9.8,0,0,1,18.383,47.2a21.559,21.559,0,0,0-7.171,3.585" fill="none" stroke="#555" stroke-linecap="round" stroke-linejoin="round" stroke-miterlimit="10" stroke-width="3"/>
    <path id="Path_129" data-name="Path 129" d="M10.932,51.113a28.212,28.212,0,1,1,18.83,7.2A28.189,28.189,0,0,1,10.932,51.113Z" fill="none" stroke="#555" stroke-miterlimit="10" stroke-width="3"/>
  </g>
</svg>
