<svg xmlns="http://www.w3.org/2000/svg" width="22.92" height="22.921" viewBox="0 0 22.92 22.921">
  <g id="Group_27" data-name="Group 27" transform="translate(-1171.25 -601.011)">
    <path id="Path_127" data-name="Path 127" d="M25.124,25.68l.1.116a10.7,10.7,0,0,1-14.288.01l.106-.126a8.177,8.177,0,0,1,2.72-1.36,3.717,3.717,0,0,0,2.136-1.4v-1.8a4.367,4.367,0,0,1-.921-2.426,1.5,1.5,0,0,1-.405-2.17s-2.132-6.119,3.274-6.182a2.511,2.511,0,0,1,2.049,1.027c3.66-.366,1.7,5.155,1.7,5.155a1.5,1.5,0,0,1-.405,2.17,4.37,4.37,0,0,1-.921,2.426v1.8a3.718,3.718,0,0,0,2.136,1.4A8.177,8.177,0,0,1,25.124,25.68Z" transform="translate(1164.636 594.648)" fill="#effaf2" stroke="#2f7038" stroke-width="1.5"/>
    <path id="Path_128" data-name="Path 128" d="M25.3,25.68a8.177,8.177,0,0,0-2.72-1.36,3.717,3.717,0,0,1-2.136-1.4v-1.8a4.367,4.367,0,0,0,.921-2.426,1.5,1.5,0,0,0,.405-2.17s1.958-5.522-1.7-5.155a2.512,2.512,0,0,0-2.049-1.027c-5.406.063-3.274,6.182-3.274,6.182a1.5,1.5,0,0,0,.405,2.17,4.37,4.37,0,0,0,.921,2.426v1.8a3.718,3.718,0,0,1-2.136,1.4,8.177,8.177,0,0,0-2.72,1.36" transform="translate(1164.463 594.648)" fill="none" stroke="#2f7038" stroke-linecap="round" stroke-linejoin="round" stroke-miterlimit="10" stroke-width="1.5"/>
    <path id="Path_129" data-name="Path 129" d="M5.092,20.524a10.7,10.7,0,1,1,7.142,2.729A10.692,10.692,0,0,1,5.092,20.524Z" transform="translate(1170.476 599.928)" fill="none" stroke="#2f7038" stroke-miterlimit="10" stroke-width="1.5"/>
  </g>
</svg>
