<svg xmlns="http://www.w3.org/2000/svg" width="31.559" height="31.559" viewBox="0 0 31.559 31.559">
  <g id="user-svgrepo-com" transform="translate(-0.524 -0.833)">
    <path id="Path_163" data-name="Path 163" d="M30.516,31.508l.133.16a14.766,14.766,0,0,1-19.717.014l.147-.173a11.284,11.284,0,0,1,3.753-1.876A5.129,5.129,0,0,0,17.78,27.7V25.213s-1.478-1.976-1.271-3.347a2.066,2.066,0,0,1-.559-2.994s-2.941-8.444,4.518-8.531A3.465,3.465,0,0,1,23.3,11.758c5.051-.506,2.349,7.113,2.349,7.113a2.066,2.066,0,0,1-.559,2.994c.206,1.371-1.271,3.347-1.271,3.347V27.7a5.131,5.131,0,0,0,2.948,1.93A11.284,11.284,0,0,1,30.516,31.508Z" transform="translate(-4.484 -4.055)" fill="#ccc"/>
    <path id="Path_164" data-name="Path 164" d="M30.65,31.508A11.284,11.284,0,0,0,26.9,29.632a5.129,5.129,0,0,1-2.948-1.93V25.213s1.478-1.976,1.271-3.347a2.066,2.066,0,0,0,.559-2.994s2.7-7.62-2.349-7.113A3.466,3.466,0,0,0,20.6,10.341c-7.46.086-4.518,8.531-4.518,8.531a2.066,2.066,0,0,0,.559,2.994c-.206,1.371,1.271,3.347,1.271,3.347V27.7a5.131,5.131,0,0,1-2.948,1.93,11.284,11.284,0,0,0-3.753,1.876" transform="translate(-4.617 -4.055)" fill="none" stroke="#555" stroke-linecap="round" stroke-linejoin="round" stroke-miterlimit="10" stroke-width="2"/>
    <path id="Path_165" data-name="Path 165" d="M6.448,27.626A14.766,14.766,0,1,1,16.3,31.392,14.754,14.754,0,0,1,6.448,27.626Z" transform="translate(0)" fill="none" stroke="#555" stroke-miterlimit="10" stroke-width="2"/>
  </g>
</svg>
